<?xml version="1.0" encoding="UTF-8" standalone="no"?>
<!-- Created with Inkscape (http://www.inkscape.org/) -->

<svg
   width="512"
   height="512"
   viewBox="0 0 512 512"
   version="1.1"
   id="svg5"
   inkscape:version="1.1.1 (3bf5ae0d25, 2021-09-20, custom)"
   sodipodi:docname="icon.svg"
   inkscape:export-filename="/home/cain/source/discord-command-palette/assets/icon.png"
   inkscape:export-xdpi="96"
   inkscape:export-ydpi="96"
   xmlns:inkscape="http://www.inkscape.org/namespaces/inkscape"
   xmlns:sodipodi="http://sodipodi.sourceforge.net/DTD/sodipodi-0.dtd"
   xmlns:xlink="http://www.w3.org/1999/xlink"
   xmlns="http://www.w3.org/2000/svg"
   xmlns:svg="http://www.w3.org/2000/svg">
  <sodipodi:namedview
     id="namedview7"
     pagecolor="#ffffff"
     bordercolor="#666666"
     borderopacity="1.0"
     inkscape:pageshadow="2"
     inkscape:pageopacity="0.0"
     inkscape:pagecheckerboard="0"
     inkscape:document-units="px"
     showgrid="false"
     inkscape:zoom="1.21875"
     inkscape:cx="160.41026"
     inkscape:cy="212.10256"
     inkscape:window-width="1900"
     inkscape:window-height="1040"
     inkscape:window-x="10"
     inkscape:window-y="30"
     inkscape:window-maximized="1"
     inkscape:current-layer="layer1" />
  <defs
     id="defs2">
    <inkscape:path-effect
       effect="fillet_chamfer"
       id="path-effect939"
       is_visible="true"
       lpeversion="1"
       satellites_param="F,0,0,1,0,50,0,1 @ F,0,0,1,0,50,0,1 @ F,0,0,1,0,50,0,1 @ F,0,0,1,0,50,0,1"
       unit="px"
       method="auto"
       mode="F"
       radius="50"
       chamfer_steps="1"
       flexible="false"
       use_knot_distance="true"
       apply_no_radius="true"
       apply_with_radius="true"
       only_selected="false"
       hide_knots="false" />
    <linearGradient
       inkscape:collect="always"
       id="linearGradient1270">
      <stop
         style="stop-color:#0d8270;stop-opacity:0.98823529"
         offset="0"
         id="stop1266" />
      <stop
         style="stop-color:#abf7e9;stop-opacity:1"
         offset="1"
         id="stop1268" />
    </linearGradient>
    <linearGradient
       inkscape:collect="always"
       id="linearGradient6948-5-6-2">
      <stop
         style="stop-color:#a5fab7;stop-opacity:1"
         offset="0"
         id="stop6944" />
      <stop
         style="stop-color:#439950;stop-opacity:1"
         offset="1"
         id="stop6946" />
    </linearGradient>
    <linearGradient
       inkscape:collect="always"
       id="linearGradient1129">
      <stop
         style="stop-color:#272032;stop-opacity:1"
         offset="0"
         id="stop1125" />
      <stop
         style="stop-color:#203e42;stop-opacity:1"
         offset="1"
         id="stop1127" />
    </linearGradient>
    <linearGradient
       inkscape:collect="always"
       xlink:href="#linearGradient1129"
       id="linearGradient1131"
       x1="157.38411"
       y1="0.57816255"
       x2="365.81021"
       y2="507.96826"
       gradientUnits="userSpaceOnUse" />
    <linearGradient
       inkscape:collect="always"
       xlink:href="#linearGradient6948-5-6-2"
       id="linearGradient6950"
       x1="94.624832"
       y1="209.84322"
       x2="213.17436"
       y2="109.33778"
       gradientUnits="userSpaceOnUse" />
    <linearGradient
       inkscape:collect="always"
       xlink:href="#linearGradient6948-5-6-2"
       id="linearGradient7916"
       gradientUnits="userSpaceOnUse"
       x1="94.624832"
       y1="209.84322"
       x2="213.17436"
       y2="109.33778"
       gradientTransform="translate(47.488839,70.468144)" />
    <linearGradient
       inkscape:collect="always"
       xlink:href="#linearGradient6948-5-6-2"
       id="linearGradient11776"
       x1="189.85457"
       y1="460.42462"
       x2="307.26782"
       y2="339.37216"
       gradientUnits="userSpaceOnUse" />
    <linearGradient
       inkscape:collect="always"
       xlink:href="#linearGradient1270"
       id="linearGradient1272"
       x1="-25.924376"
       y1="249.28951"
       x2="444.78336"
       y2="31.769258"
       gradientUnits="userSpaceOnUse" />
  </defs>
  <g
     inkscape:label="Layer 1"
     inkscape:groupmode="layer"
     id="layer1">
    <path
       style="fill:url(#linearGradient1131);fill-opacity:1"
       id="rect31"
       width="512"
       height="512"
       x="0"
       y="0"
       rx="0"
       ry="0"
       inkscape:path-effect="#path-effect939"
       d="m 50,0 h 412 a 50,50 45 0 1 50,50 v 412 a 50,50 135 0 1 -50,50 H 50 A 50,50 45 0 1 0,462 V 50 A 50,50 135 0 1 50,0 Z"
       sodipodi:type="rect" />
    <g
       aria-label="&gt;"
       id="text3967"
       style="font-size:400px;line-height:1.25;fill:url(#linearGradient6950);fill-opacity:1"
       transform="matrix(1.052879,0,0,1.0643107,3.4096051,12.551612)">
      <path
         d="m 281.69467,223.30814 q 0,3.32031 -0.39063,6.05468 -0.39062,2.53907 -0.97656,4.49219 -0.58594,1.95313 -1.5625,3.125 -0.97656,0.97656 -2.14844,1.5625 l -153.32031,77.34375 q -2.14844,0.97656 -3.71094,1.17188 -1.5625,0 -2.53906,-1.36719 -0.78125,-1.36719 -1.17187,-4.10156 -0.39063,-2.92969 -0.39063,-7.42188 0,-5.46875 0.19531,-8.78906 0.19532,-3.32031 0.78125,-5.27344 0.78125,-2.14844 2.14844,-3.32031 1.36719,-1.17188 3.51563,-2.14844 L 248.10092,222.7222 122.90561,162.37064 q -2.53907,-1.17187 -4.10157,-2.14844 -1.36718,-1.17187 -2.14843,-3.32031 -0.78125,-2.14844 -0.97657,-5.46875 -0.19531,-3.51562 -0.19531,-9.17968 0,-5.07813 0.39063,-7.8125 0.39062,-2.92969 1.17187,-4.10157 0.97656,-1.36718 2.53906,-1.17187 1.5625,0.19531 3.71094,1.36719 l 153.90625,77.53905 q 1.95313,0.97656 3.125,4.88281 1.36719,3.71094 1.36719,10.35157 z"
         style="font-family:Calibri;-inkscape-font-specification:Calibri;fill:url(#linearGradient7916);fill-opacity:1"
         id="path6689" />
    </g>
    <rect
       style="fill:url(#linearGradient11776);fill-opacity:1;stroke-width:0.827387"
       id="rect7834"
       width="225"
       height="30"
       x="225"
       y="385"
       ry="0" />
    <path
       id="rect7940"
       style="fill:url(#linearGradient1272);fill-opacity:1;stroke-width:0.600482"
       d="m 50,50 c 0,154 0,308 0,462 H 80 V 80 H 512 V 50 C 358,50 204,50 50,50 Z"
       sodipodi:nodetypes="ccccccc" />
  </g>
</svg>
