<svg xmlns="http://www.w3.org/2000/svg" xmlns:svg="http://www.w3.org/2000/svg" xmlns:xlink="http://www.w3.org/1999/xlink" id="svg5" width="512" height="512" version="1.1" viewBox="0 0 512 512"><defs id="defs2"><linearGradient id="linearGradient1270"><stop style="stop-color:#0d8270;stop-opacity:.98823529" id="stop1266" offset="0"/><stop style="stop-color:#abf7e9;stop-opacity:1" id="stop1268" offset="1"/></linearGradient><linearGradient id="linearGradient6948-5-6-2"><stop style="stop-color:#a5fab7;stop-opacity:1" id="stop6944" offset="0"/><stop style="stop-color:#439950;stop-opacity:1" id="stop6946" offset="1"/></linearGradient><linearGradient id="linearGradient1129"><stop style="stop-color:#272032;stop-opacity:1" id="stop1125" offset="0"/><stop style="stop-color:#203e42;stop-opacity:1" id="stop1127" offset="1"/></linearGradient><linearGradient id="linearGradient1131" x1="157.384" x2="365.81" y1=".578" y2="507.968" gradientUnits="userSpaceOnUse" xlink:href="#linearGradient1129"/><linearGradient id="linearGradient6950" x1="94.625" x2="213.174" y1="209.843" y2="109.338" gradientUnits="userSpaceOnUse" xlink:href="#linearGradient6948-5-6-2"/><linearGradient id="linearGradient7916" x1="94.625" x2="213.174" y1="209.843" y2="109.338" gradientTransform="translate(47.488839,70.468144)" gradientUnits="userSpaceOnUse" xlink:href="#linearGradient6948-5-6-2"/><linearGradient id="linearGradient11776" x1="189.855" x2="307.268" y1="460.425" y2="339.372" gradientUnits="userSpaceOnUse" xlink:href="#linearGradient6948-5-6-2"/><linearGradient id="linearGradient1272" x1="-25.924" x2="444.783" y1="249.29" y2="31.769" gradientUnits="userSpaceOnUse" xlink:href="#linearGradient1270"/></defs><g id="layer1"><path style="fill:url(#linearGradient1131);fill-opacity:1" id="rect31" width="512" height="512" x="0" y="0" d="m 50,0 h 412 a 50,50 45 0 1 50,50 v 412 a 50,50 135 0 1 -50,50 H 50 A 50,50 45 0 1 0,462 V 50 A 50,50 135 0 1 50,0 Z" rx="0" ry="0"/><g id="text3967" aria-label="&gt;" transform="matrix(1.052879,0,0,1.0643107,3.4096051,12.551612)" style="font-size:400px;line-height:1.25;fill:url(#linearGradient6950);fill-opacity:1"><path style="font-family:Calibri;-inkscape-font-specification:Calibri;fill:url(#linearGradient7916);fill-opacity:1" id="path6689" d="m 281.69467,223.30814 q 0,3.32031 -0.39063,6.05468 -0.39062,2.53907 -0.97656,4.49219 -0.58594,1.95313 -1.5625,3.125 -0.97656,0.97656 -2.14844,1.5625 l -153.32031,77.34375 q -2.14844,0.97656 -3.71094,1.17188 -1.5625,0 -2.53906,-1.36719 -0.78125,-1.36719 -1.17187,-4.10156 -0.39063,-2.92969 -0.39063,-7.42188 0,-5.46875 0.19531,-8.78906 0.19532,-3.32031 0.78125,-5.27344 0.78125,-2.14844 2.14844,-3.32031 1.36719,-1.17188 3.51563,-2.14844 L 248.10092,222.7222 122.90561,162.37064 q -2.53907,-1.17187 -4.10157,-2.14844 -1.36718,-1.17187 -2.14843,-3.32031 -0.78125,-2.14844 -0.97657,-5.46875 -0.19531,-3.51562 -0.19531,-9.17968 0,-5.07813 0.39063,-7.8125 0.39062,-2.92969 1.17187,-4.10157 0.97656,-1.36718 2.53906,-1.17187 1.5625,0.19531 3.71094,1.36719 l 153.90625,77.53905 q 1.95313,0.97656 3.125,4.88281 1.36719,3.71094 1.36719,10.35157 z"/></g><rect style="fill:url(#linearGradient11776);fill-opacity:1;stroke-width:.827387" id="rect7834" width="225" height="30" x="225" y="385" ry="0"/><path id="rect7940" d="m 50,50 c 0,154 0,308 0,462 H 80 V 80 H 512 V 50 C 358,50 204,50 50,50 Z" style="fill:url(#linearGradient1272);fill-opacity:1;stroke-width:.600482"/></g></svg>